# Blender 4.5.0 Beta
# www.blender.org
mtllib Forward.mtl
o Straight
v -0.500000 0.968750 0.500000
v -0.500000 0.800000 -0.500000
v -0.500000 0.800000 0.500000
v -0.500000 0.968750 -0.500000
v 0.500000 0.800000 -0.500000
v 0.500000 0.968750 -0.500000
v 0.500000 0.800000 0.500000
v 0.500000 0.968750 0.500000
v 0.500000 0.968750 -0.500000
v 0.500000 1.000000 0.500000
v 0.500000 0.968750 0.500000
v -0.450000 0.968750 0.450000
v 0.450000 0.968750 0.450000
v -0.450000 0.968750 0.450000
v 0.450000 0.968750 -0.450000
v 0.450000 0.968750 0.450000
v 0.450000 0.968750 0.450000
v -0.450000 0.968750 -0.450000
v 0.450000 0.968750 -0.450000
v -0.450000 0.968750 -0.450000
v 0.450000 1.000000 0.450000
v 0.450000 0.968750 -0.450000
v -0.500000 1.000000 0.500000
v -0.450000 1.000000 -0.450000
v -0.500000 1.000000 -0.500000
v 0.500000 1.000000 -0.500000
v 0.450000 1.000000 -0.450000
v -0.450000 1.000000 0.450000
v -0.501250 1.031250 0.500000
v -0.501250 0.968750 0.437500
v -0.501250 0.968750 0.500000
v -0.501250 1.031250 0.437500
v -0.438750 0.968750 0.437500
v -0.438750 1.031250 0.437500
v -0.438750 0.968750 0.500000
v -0.438750 1.031250 0.500000
v 0.438750 1.031250 0.500000
v 0.438750 0.968750 0.437500
v 0.438750 0.968750 0.500000
v 0.438750 1.031250 0.437500
v 0.501250 0.968750 0.437500
v 0.501250 1.031250 0.437500
v 0.501250 0.968750 0.500000
v 0.501250 1.031250 0.500000
v -0.501250 1.031250 -0.437500
v -0.501250 0.968750 -0.500000
v -0.501250 0.968750 -0.437500
v -0.501250 1.031250 -0.500000
v -0.438750 0.968750 -0.500000
v -0.438750 1.031250 -0.500000
v -0.438750 0.968750 -0.437500
v -0.438750 1.031250 -0.437500
v 0.438750 1.031250 -0.437500
v 0.438750 0.968750 -0.500000
v 0.438750 0.968750 -0.437500
v 0.438750 1.031250 -0.500000
v 0.501250 0.968750 -0.500000
v 0.501250 1.031250 -0.500000
v 0.501250 0.968750 -0.437500
v 0.501250 1.031250 -0.437500
v -0.475000 0.800000 0.325000
v -0.475000 0.800000 0.475000
v -0.325000 0.800000 0.325000
v -0.325000 0.800000 0.475000
v -0.475000 0.000000 0.325000
v -0.475000 0.000000 0.475000
v -0.325000 0.000000 0.325000
v -0.325000 0.000000 0.475000
v 0.325000 0.800000 0.475000
v 0.475000 0.800000 0.475000
v 0.325000 0.800000 0.325000
v 0.475000 0.800000 0.325000
v 0.325000 0.000000 0.475000
v 0.475000 0.000000 0.475000
v 0.325000 0.000000 0.325000
v 0.475000 0.000000 0.325000
v 0.475000 0.800000 -0.325000
v 0.475000 0.800000 -0.475000
v 0.325000 0.800000 -0.325000
v 0.325000 0.800000 -0.475000
v 0.475000 0.000000 -0.325000
v 0.475000 0.000000 -0.475000
v 0.325000 0.000000 -0.325000
v 0.325000 0.000000 -0.475000
v -0.325000 0.800000 -0.475000
v -0.475000 0.800000 -0.475000
v -0.325000 0.800000 -0.325000
v -0.475000 0.800000 -0.325000
v -0.325000 0.000000 -0.475000
v -0.475000 0.000000 -0.475000
v -0.325000 0.000000 -0.325000
v -0.475000 0.000000 -0.325000
vn -1.0000 -0.0000 -0.0000
vn -0.0000 -0.0000 -1.0000
vn 1.0000 -0.0000 -0.0000
vn -0.0000 -0.0000 1.0000
vn -0.0000 1.0000 -0.0000
vn -0.0000 -0.0000 -0.0000
vn -0.7071 -0.0000 0.7071
vn 0.7071 -0.0000 -0.7071
vn -0.7071 -0.0000 -0.7071
vn 0.7071 -0.0000 0.7071
vn -0.0000 -1.0000 -0.0000
vt 0.307766 0.467187
vt 0.006980 0.418750
vt 0.307766 0.418750
vt 0.307766 0.468750
vt 0.006980 0.420312
vt 0.307766 0.420312
vt 0.676715 0.094529
vt 0.426715 0.102342
vt 0.426715 0.094529
vt 0.004688 1.000000
vt 0.229687 1.000000
vt 0.821992 0.768951
vt 0.719690 0.774335
vt 0.714306 0.768951
vt 0.782167 0.739798
vt 0.846164 0.736430
vt 0.849533 0.739798
vt 0.000000 1.000000
vt 0.000000 0.982322
vt 0.671554 0.999759
vt 0.959350 0.766589
vt 0.962293 0.998593
vt 0.000000 0.775000
vt 0.676974 0.124391
vt 0.669161 0.106713
vt 0.676974 0.106713
vt 0.000000 0.750000
vt 0.024464 1.000000
vt 0.006786 1.000000
vt 0.666819 0.094008
vt 0.429319 0.106508
vt 0.416819 0.094008
vt 0.420986 0.126300
vt 0.658486 0.113800
vt 0.670986 0.126300
vt 0.708224 0.124391
vt 0.700411 0.106713
vt 0.708224 0.106713
vt 0.582965 0.141404
vt 0.332965 0.149217
vt 0.332965 0.141404
vt 0.426715 0.063279
vt 0.409037 0.071092
vt 0.409037 0.063279
vt 0.656403 0.110154
vt 0.431403 0.117967
vt 0.431403 0.110154
vt 0.473590 0.063279
vt 0.455912 0.071092
vt 0.455912 0.063279
vt 0.640778 0.094529
vt 0.415778 0.102342
vt 0.415778 0.094529
vt 0.450411 0.091088
vt 0.466036 0.075463
vt 0.466036 0.091088
vt 0.481661 0.091088
vt 0.497286 0.075463
vt 0.497286 0.091088
vt 0.512911 0.091088
vt 0.528536 0.075463
vt 0.528536 0.091088
vt 0.544161 0.091088
vt 0.559786 0.075463
vt 0.559786 0.091088
vt 0.591036 0.091088
vt 0.575411 0.075463
vt 0.591036 0.075463
vt 0.606661 0.075463
vt 0.622286 0.091088
vt 0.606661 0.091088
vt 0.637911 0.091088
vt 0.653536 0.075463
vt 0.653536 0.091088
vt 0.669161 0.091088
vt 0.450411 0.122338
vt 0.684786 0.091088
vt 0.411090 0.102342
vt 0.395465 0.086717
vt 0.411090 0.086717
vt 0.442340 0.102342
vt 0.426715 0.086717
vt 0.442340 0.086717
vt 0.473590 0.086717
vt 0.457965 0.102342
vt 0.457965 0.086717
vt 0.450411 0.106713
vt 0.466036 0.122338
vt 0.504840 0.102342
vt 0.489215 0.086717
vt 0.504840 0.086717
vt 0.481661 0.122338
vt 0.497286 0.106713
vt 0.497286 0.122338
vt 0.536090 0.102342
vt 0.520465 0.086717
vt 0.536090 0.086717
vt 0.512911 0.122338
vt 0.528536 0.106713
vt 0.528536 0.122338
vt 0.567340 0.086717
vt 0.551715 0.102342
vt 0.551715 0.086717
vt 0.544161 0.106713
vt 0.559786 0.122338
vt 0.544161 0.122338
vt 0.598590 0.102342
vt 0.582965 0.086717
vt 0.598590 0.086717
vt 0.575411 0.122338
vt 0.591036 0.106713
vt 0.591036 0.122338
vt 0.704477 0.140742
vt 0.342022 0.062617
vt 0.340784 0.144409
vt 0.606661 0.122338
vt 0.622286 0.106713
vt 0.622286 0.122338
vt 0.653536 0.122338
vt 0.637911 0.106713
vt 0.653536 0.106713
vt 0.700411 0.075463
vt 0.716036 0.091088
vt 0.700411 0.091088
vt 0.006980 0.467187
vt 0.006980 0.468750
vt 0.676715 0.078904
vt 0.676715 0.086717
vt 0.808531 0.768951
vt 0.803147 0.774335
vt 0.706230 0.774335
vt 0.786377 0.748219
vt 0.789746 0.744850
vt 0.850375 0.744850
vt 0.671554 0.999275
vt 0.667140 0.766104
vt 0.959350 0.766104
vt 0.669161 0.124391
vt 0.651194 0.109633
vt 0.638694 0.122133
vt 0.413694 0.122133
vt 0.420986 0.141925
vt 0.417861 0.113800
vt 0.658486 0.129425
vt 0.700411 0.124391
vt 0.598590 0.141404
vt 0.598590 0.149217
vt 0.348590 0.149217
vt 0.426715 0.071092
vt 0.640778 0.110154
vt 0.640778 0.117967
vt 0.415778 0.117967
vt 0.473590 0.071092
vt 0.609528 0.094529
vt 0.609528 0.102342
vt 0.384528 0.102342
vt 0.450411 0.075463
vt 0.481661 0.075463
vt 0.512911 0.075463
vt 0.544161 0.075463
vt 0.575411 0.091088
vt 0.622286 0.075463
vt 0.637911 0.075463
vt 0.669161 0.075463
vt 0.395465 0.102342
vt 0.473590 0.102342
vt 0.466036 0.106713
vt 0.489215 0.102342
vt 0.481661 0.106713
vt 0.520465 0.102342
vt 0.512911 0.106713
vt 0.567340 0.102342
vt 0.559786 0.106713
vt 0.582965 0.102342
vt 0.575411 0.106713
vt 0.463774 0.027328
vt 0.726586 0.106270
vt 0.606661 0.106713
vt 0.637911 0.122338
vt 0.716036 0.075463
vt 0.307766 0.468750
vt 0.006980 0.218750
vt 0.307766 0.218750
vt 0.840190 0.742736
vt 0.841504 0.737154
vt 0.841504 0.742736
vt 0.840190 0.748319
vt 0.841504 0.748319
vt 0.835577 0.737154
vt 0.833928 0.741601
vt 0.833928 0.737154
vt 0.835577 0.741601
vt 0.837227 0.737154
vt 0.837227 0.741601
vt 0.843154 0.737154
vt 0.841504 0.741601
vt 0.841504 0.746048
vt 0.843154 0.741601
vt 0.843154 0.746048
vt 0.837227 0.748319
vt 0.838541 0.742736
vt 0.838541 0.748319
vt 0.837227 0.742736
vt 0.838541 0.737154
vt 0.843154 0.742736
vt 0.844468 0.737154
vt 0.844468 0.742736
vt 0.843154 0.748319
vt 0.844468 0.748319
vt 0.840190 0.737154
vt 0.838541 0.741601
vt 0.834263 0.742736
vt 0.832614 0.747184
vt 0.832614 0.742736
vt 0.834263 0.747184
vt 0.835913 0.742736
vt 0.835913 0.747184
vt 0.838541 0.747184
vt 0.835913 0.748319
vt 0.833928 0.742736
vt 0.832614 0.737154
vt 0.006980 0.468750
vt 0.840190 0.741601
vt 0.840190 0.747184
s 0
usemtl m_508ba9cc-0652-c08f-4bd6-6e10a83c4cd3
f 1/1/1 2/2/1 3/3/1
f 4/4/2 5/5/2 2/6/2
f 6/4/3 7/5/3 5/6/3
f 8/4/4 3/5/4 7/6/4
f 9/7/3 10/8/3 11/9/3
f 12/10/4 13/11/4 14/10/4
f 8/12/5 12/13/5 1/14/5
f 4/15/5 15/16/5 6/17/5
f 16/18/4 11/19/4 17/18/4
f 18/20/5 13/21/5 19/22/5
f 15/11/4 18/10/4 19/11/4
f 16/23/6 19/18/6 13/23/6
f 20/18/6 14/23/6 18/18/6
f 11/24/7 21/25/7 17/26/7
f 15/18/6 17/23/6 22/18/6
f 8/27/6 9/18/6 11/27/6
f 6/28/4 22/29/4 9/28/4
f 23/30/5 24/31/5 25/32/5
f 26/33/5 21/34/5 10/35/5
f 4/36/8 24/37/8 20/38/8
f 1/39/1 25/40/1 4/41/1
f 22/42/9 26/43/9 9/44/9
f 17/45/1 27/46/1 22/47/1
f 12/48/10 23/49/10 1/50/10
f 20/51/3 28/52/3 12/53/3
f 29/54/1 30/55/1 31/56/1
f 32/57/2 33/58/2 30/59/2
f 34/60/3 35/61/3 33/62/3
f 36/63/4 31/64/4 35/65/4
f 33/66/11 31/67/11 30/68/11
f 32/69/5 36/70/5 34/71/5
f 37/72/1 38/73/1 39/74/1
f 40/75/2 41/76/2 38/77/2
f 42/78/3 43/79/3 41/80/3
f 44/81/4 39/82/4 43/83/4
f 41/84/11 39/85/11 38/86/11
f 40/87/5 44/88/5 42/76/5
f 45/89/1 46/90/1 47/91/1
f 48/92/2 49/93/2 46/94/2
f 50/95/3 51/96/3 49/97/3
f 52/98/4 47/99/4 51/100/4
f 49/101/11 47/102/11 46/103/11
f 48/104/5 52/105/5 50/106/5
f 53/107/1 54/108/1 55/109/1
f 56/110/2 57/111/2 54/112/2
f 58/113/3 59/114/3 57/115/3
f 60/116/4 55/117/4 59/118/4
f 57/119/11 55/120/11 54/121/11
f 56/122/5 60/123/5 58/124/5
f 1/1/1 4/125/1 2/2/1
f 4/4/2 6/126/2 5/5/2
f 6/4/3 8/126/3 7/5/3
f 8/4/4 1/126/4 3/5/4
f 9/127/3 26/128/3 10/82/3
f 12/10/4 16/11/4 13/11/4
f 8/129/5 16/130/5 12/131/5
f 4/132/5 20/133/5 15/134/5
f 16/18/4 8/19/4 11/19/4
f 18/135/5 14/136/5 13/137/5
f 15/11/4 20/10/4 18/10/4
f 16/23/6 15/18/6 19/18/6
f 20/18/6 12/23/6 14/23/6
f 11/24/7 10/138/7 21/25/7
f 15/18/6 16/23/6 17/23/6
f 8/27/6 6/18/6 9/18/6
f 6/28/4 15/29/4 22/29/4
f 23/139/5 28/140/5 24/141/5
f 26/142/5 27/143/5 21/144/5
f 4/36/8 25/145/8 24/37/8
f 1/146/1 23/147/1 25/148/1
f 22/42/9 27/149/9 26/43/9
f 17/150/1 21/151/1 27/152/1
f 12/48/10 28/153/10 23/49/10
f 20/154/3 24/155/3 28/156/3
f 29/54/1 32/157/1 30/55/1
f 32/57/2 34/158/2 33/58/2
f 34/60/3 36/159/3 35/61/3
f 36/63/4 29/160/4 31/64/4
f 33/66/11 35/161/11 31/67/11
f 32/69/5 29/162/5 36/70/5
f 37/72/1 40/163/1 38/73/1
f 40/75/2 42/164/2 41/76/2
f 42/78/3 44/165/3 43/79/3
f 44/81/4 37/8/4 39/82/4
f 41/84/11 43/166/11 39/85/11
f 40/87/5 37/167/5 44/88/5
f 45/89/1 48/168/1 46/90/1
f 48/92/2 50/169/2 49/93/2
f 50/95/3 52/170/3 51/96/3
f 52/98/4 45/171/4 47/99/4
f 49/101/11 51/172/11 47/102/11
f 48/104/5 45/173/5 52/105/5
f 53/107/1 56/174/1 54/108/1
f 56/110/2 58/175/2 57/111/2
f 58/176/3 60/177/3 59/114/3
f 60/116/4 53/178/4 55/117/4
f 57/119/11 59/179/11 55/120/11
f 56/122/5 53/180/5 60/123/5
f 7/181/11 2/182/11 5/183/11
f 62/184/4 68/185/4 64/186/4
f 68/181/11 65/182/11 67/183/11
f 63/187/2 65/186/2 61/188/2
f 61/189/1 66/190/1 62/191/1
f 64/192/3 67/193/3 63/194/3
f 70/195/3 76/196/3 72/185/3
f 76/181/11 73/182/11 75/183/11
f 71/197/1 73/198/1 69/199/1
f 69/200/4 74/201/4 70/202/4
f 72/203/2 75/204/2 71/201/2
f 78/205/2 84/206/2 80/207/2
f 84/181/11 81/182/11 83/183/11
f 79/208/4 81/207/4 77/209/4
f 77/210/3 82/211/3 78/204/3
f 80/212/1 83/213/1 79/214/1
f 86/215/1 92/216/1 88/217/1
f 92/181/11 89/182/11 91/183/11
f 87/184/3 89/218/3 85/201/3
f 85/219/2 90/203/2 86/200/2
f 87/220/4 92/221/4 91/191/4
f 7/181/11 3/222/11 2/182/11
f 62/184/4 66/210/4 68/185/4
f 68/181/11 66/222/11 65/182/11
f 63/187/2 67/184/2 65/186/2
f 61/189/1 65/192/1 66/190/1
f 64/192/3 68/189/3 67/193/3
f 70/195/3 74/198/3 76/196/3
f 76/181/11 74/222/11 73/182/11
f 71/197/1 75/196/1 73/198/1
f 69/200/4 73/203/4 74/201/4
f 72/203/2 76/193/2 75/204/2
f 78/205/2 82/195/2 84/206/2
f 84/181/11 82/222/11 81/182/11
f 79/208/4 83/205/4 81/207/4
f 77/210/3 81/223/3 82/211/3
f 80/212/1 84/215/1 83/213/1
f 86/215/1 90/212/1 92/216/1
f 92/181/11 90/222/11 89/182/11
f 87/184/3 91/224/3 89/218/3
f 85/219/2 89/216/2 90/203/2
f 87/220/4 88/214/4 92/221/4
