# Blender 4.5.0 Beta
# www.blender.org
mtllib Left.mtl
o Left
v -0.500000 0.968750 0.500000
v -0.500000 0.800000 -0.500000
v -0.500000 0.800000 0.500000
v -0.500000 0.968750 -0.500000
v 0.500000 0.800000 -0.500000
v 0.500000 0.968750 -0.500000
v 0.500000 0.800000 0.500000
v 0.500000 0.968750 0.500000
v 0.500000 0.968750 -0.500000
v 0.500000 1.000000 0.500000
v 0.500000 0.968750 0.500000
v -0.450000 0.968750 0.450000
v 0.450000 0.968750 0.450000
v -0.450000 0.968750 0.450000
v 0.450000 0.968750 -0.450000
v 0.450000 0.968750 0.450000
v 0.450000 0.968750 0.450000
v -0.450000 0.968750 -0.450000
v 0.450000 0.968750 -0.450000
v -0.450000 0.968750 -0.450000
v 0.450000 1.000000 0.450000
v 0.450000 0.968750 -0.450000
v -0.500000 0.968500 0.500000
v -0.450000 0.968500 -0.450000
v -0.500000 0.968500 -0.500000
v 0.500000 1.000000 -0.500000
v 0.450000 1.000000 -0.450000
v -0.450000 0.968500 0.450000
v -0.501250 1.031250 0.500000
v -0.501250 0.968750 0.437500
v -0.501250 0.968750 0.500000
v -0.501250 1.031250 0.437500
v -0.438750 0.968750 0.437500
v -0.438750 1.031250 0.437500
v -0.438750 0.968750 0.500000
v -0.438750 1.031250 0.500000
v 0.438750 1.031250 0.500000
v 0.438750 0.968750 0.437500
v 0.438750 0.968750 0.500000
v 0.438750 1.031250 0.437500
v 0.501250 0.968750 0.437500
v 0.501250 1.031250 0.437500
v 0.501250 0.968750 0.500000
v 0.501250 1.031250 0.500000
v -0.501250 1.031250 -0.437500
v -0.501250 0.968750 -0.500000
v -0.501250 0.968750 -0.437500
v -0.501250 1.031250 -0.500000
v -0.438750 0.968750 -0.500000
v -0.438750 1.031250 -0.500000
v -0.438750 0.968750 -0.437500
v -0.438750 1.031250 -0.437500
v 0.438750 1.031250 -0.437500
v 0.438750 0.968750 -0.500000
v 0.438750 0.968750 -0.437500
v 0.438750 1.031250 -0.500000
v 0.501250 0.968750 -0.500000
v 0.501250 1.031250 -0.500000
v 0.501250 0.968750 -0.437500
v 0.501250 1.031250 -0.437500
v -0.500000 1.000000 -0.500000
v 0.500000 1.000000 -0.500000
v 0.450000 1.000000 -0.450000
v -0.450000 1.000000 -0.450000
v -0.475000 0.800000 0.325000
v -0.475000 0.800000 0.475000
v -0.325000 0.800000 0.325000
v -0.325000 0.800000 0.475000
v -0.475000 0.000000 0.325000
v -0.475000 0.000000 0.475000
v -0.325000 0.000000 0.325000
v -0.325000 0.000000 0.475000
v 0.325000 0.800000 0.475000
v 0.475000 0.800000 0.475000
v 0.325000 0.800000 0.325000
v 0.475000 0.800000 0.325000
v 0.325000 0.000000 0.475000
v 0.475000 0.000000 0.475000
v 0.325000 0.000000 0.325000
v 0.475000 0.000000 0.325000
v 0.475000 0.800000 -0.325000
v 0.475000 0.800000 -0.475000
v 0.325000 0.800000 -0.325000
v 0.325000 0.800000 -0.475000
v 0.475000 0.000000 -0.325000
v 0.475000 0.000000 -0.475000
v 0.325000 0.000000 -0.325000
v 0.325000 0.000000 -0.475000
v -0.325000 0.800000 -0.475000
v -0.475000 0.800000 -0.475000
v -0.325000 0.800000 -0.325000
v -0.475000 0.800000 -0.325000
v -0.325000 0.000000 -0.475000
v -0.475000 0.000000 -0.475000
v -0.325000 0.000000 -0.325000
v -0.475000 0.000000 -0.325000
vn -1.0000 -0.0000 -0.0000
vn -0.0000 -0.0000 -1.0000
vn 1.0000 -0.0000 -0.0000
vn -0.0000 -0.0000 1.0000
vn -0.0000 1.0000 -0.0000
vn -0.0000 -0.0000 -0.0000
vn -0.7071 -0.0000 0.7071
vn -0.7070 -0.0000 0.7072
vn -0.7071 -0.0000 -0.7071
vn -0.7070 -0.0000 -0.7072
vn -0.0000 -1.0000 -0.0000
vn 0.7071 -0.0000 0.7071
vt 0.307766 0.467187
vt 0.006980 0.418750
vt 0.307766 0.418750
vt 0.307766 0.468750
vt 0.006980 0.420312
vt 0.307766 0.420312
vt 0.676715 0.094529
vt 0.426715 0.102342
vt 0.426715 0.094529
vt 0.004688 1.000000
vt 0.229687 1.000000
vt 0.821992 0.768951
vt 0.719690 0.774335
vt 0.714306 0.768951
vt 0.705520 0.081278
vt 0.480520 0.081278
vt 0.000000 1.000000
vt 0.000000 0.982322
vt 0.961372 0.766534
vt 0.668668 0.998042
vt 0.959908 1.000409
vt 0.000000 0.775000
vt 0.676974 0.124391
vt 0.669161 0.106713
vt 0.676974 0.106713
vt 0.000000 0.750000
vt 0.024464 1.000000
vt 0.006786 1.000000
vt 0.855310 0.769787
vt 0.783356 0.773574
vt 0.779569 0.769787
vt 0.420986 0.126300
vt 0.658486 0.113800
vt 0.670986 0.126300
vt 0.708224 0.124391
vt 0.700411 0.106713
vt 0.708224 0.106713
vt 0.582965 0.141404
vt 0.332965 0.149217
vt 0.332965 0.141404
vt 0.426715 0.063279
vt 0.409037 0.071092
vt 0.409037 0.063279
vt 0.656403 0.110154
vt 0.431403 0.117967
vt 0.431403 0.110154
vt 0.473590 0.063279
vt 0.455912 0.071092
vt 0.455912 0.063279
vt 0.640778 0.094529
vt 0.415778 0.102342
vt 0.415778 0.094529
vt 0.450411 0.091088
vt 0.466036 0.075463
vt 0.466036 0.091088
vt 0.481661 0.091088
vt 0.497286 0.075463
vt 0.497286 0.091088
vt 0.512911 0.091088
vt 0.528536 0.075463
vt 0.528536 0.091088
vt 0.544161 0.091088
vt 0.559786 0.075463
vt 0.559786 0.091088
vt 0.591036 0.091088
vt 0.575411 0.075463
vt 0.591036 0.075463
vt 0.606661 0.075463
vt 0.622286 0.091088
vt 0.606661 0.091088
vt 0.637911 0.091088
vt 0.653536 0.075463
vt 0.653536 0.091088
vt 0.669161 0.091088
vt 0.450411 0.122338
vt 0.684786 0.091088
vt 0.411090 0.102342
vt 0.395465 0.086717
vt 0.411090 0.086717
vt 0.442340 0.102342
vt 0.426715 0.086717
vt 0.442340 0.086717
vt 0.473590 0.086717
vt 0.457965 0.102342
vt 0.457965 0.086717
vt 0.450411 0.106713
vt 0.466036 0.122338
vt 0.504840 0.102342
vt 0.489215 0.086717
vt 0.504840 0.086717
vt 0.481661 0.122338
vt 0.497286 0.106713
vt 0.497286 0.122338
vt 0.536090 0.102342
vt 0.520465 0.086717
vt 0.536090 0.086717
vt 0.512911 0.122338
vt 0.528536 0.106713
vt 0.528536 0.122338
vt 0.567340 0.086717
vt 0.551715 0.102342
vt 0.551715 0.086717
vt 0.544161 0.106713
vt 0.559786 0.122338
vt 0.544161 0.122338
vt 0.598590 0.102342
vt 0.582965 0.086717
vt 0.598590 0.086717
vt 0.575411 0.122338
vt 0.591036 0.106713
vt 0.591036 0.122338
vt 0.704477 0.140742
vt 0.342022 0.062617
vt 0.340784 0.144409
vt 0.606661 0.122338
vt 0.622286 0.106713
vt 0.622286 0.122338
vt 0.653536 0.122338
vt 0.637911 0.106713
vt 0.653536 0.106713
vt 0.700411 0.075463
vt 0.716036 0.091088
vt 0.700411 0.091088
vt 0.006980 0.467187
vt 0.006980 0.468750
vt 0.676715 0.078904
vt 0.676715 0.086717
vt 0.808531 0.768951
vt 0.803147 0.774335
vt 0.706230 0.774335
vt 0.960966 0.766426
vt 0.668262 0.766746
vt 0.668262 0.997196
vt 0.669161 0.124391
vt 0.850576 0.774520
vt 0.846789 0.778307
vt 0.778622 0.778307
vt 0.420986 0.141925
vt 0.417861 0.113800
vt 0.658486 0.129425
vt 0.700411 0.124391
vt 0.598590 0.141404
vt 0.598590 0.149217
vt 0.348590 0.149217
vt 0.426715 0.071092
vt 0.640778 0.110154
vt 0.640778 0.117967
vt 0.415778 0.117967
vt 0.473590 0.071092
vt 0.609528 0.094529
vt 0.609528 0.102342
vt 0.384528 0.102342
vt 0.450411 0.075463
vt 0.481661 0.075463
vt 0.512911 0.075463
vt 0.544161 0.075463
vt 0.575411 0.091088
vt 0.622286 0.075463
vt 0.637911 0.075463
vt 0.669161 0.075463
vt 0.395465 0.102342
vt 0.473590 0.102342
vt 0.466036 0.106713
vt 0.489215 0.102342
vt 0.481661 0.106713
vt 0.520465 0.102342
vt 0.512911 0.106713
vt 0.567340 0.102342
vt 0.559786 0.106713
vt 0.582965 0.102342
vt 0.575411 0.106713
vt 0.463774 0.027328
vt 0.726586 0.106270
vt 0.606661 0.106713
vt 0.637911 0.122338
vt 0.716036 0.075463
vt 0.534170 0.044332
vt 0.598167 0.040964
vt 0.601535 0.044332
vt 0.538380 0.052753
vt 0.541748 0.049385
vt 0.602377 0.049385
vt 0.307766 0.468750
vt 0.006980 0.468750
vt 0.006980 0.218750
vt 0.307766 0.218750
vt 0.722295 0.743053
vt 0.894466 0.743053
vt 0.722295 0.738581
vt 0.894466 0.738581
s 0
usemtl m_508ba9cc-0652-c08f-4bd6-6e10a83c4cd3
f 1/1/1 2/2/1 3/3/1
f 4/4/2 5/5/2 2/6/2
f 6/4/3 7/5/3 5/6/3
f 8/4/4 3/5/4 7/6/4
f 9/7/3 10/8/3 11/9/3
f 12/10/4 13/11/4 14/10/4
f 8/12/5 12/13/5 1/14/5
f 15/15/4 64/16/4 20/16/4
f 16/17/4 11/18/4 17/17/4
f 18/19/5 13/20/5 19/21/5
f 15/11/4 18/10/4 19/11/4
f 16/22/6 19/17/6 13/22/6
f 20/17/6 14/22/6 18/17/6
f 11/23/7 21/24/7 17/25/7
f 15/17/6 17/22/6 22/17/6
f 8/26/6 9/17/6 11/26/6
f 6/27/4 22/28/4 9/27/4
f 23/29/5 24/30/5 25/31/5
f 26/32/5 21/33/5 10/34/5
f 4/35/8 24/36/8 20/37/8
f 1/38/3 25/39/3 4/40/3
f 22/41/9 26/42/9 9/43/9
f 17/44/1 27/45/1 22/46/1
f 12/47/10 23/48/10 1/49/10
f 20/50/1 28/51/1 12/52/1
f 29/53/1 30/54/1 31/55/1
f 32/56/2 33/57/2 30/58/2
f 34/59/3 35/60/3 33/61/3
f 36/62/4 31/63/4 35/64/4
f 33/65/11 31/66/11 30/67/11
f 32/68/5 36/69/5 34/70/5
f 37/71/1 38/72/1 39/73/1
f 40/74/2 41/75/2 38/76/2
f 42/77/3 43/78/3 41/79/3
f 44/80/4 39/81/4 43/82/4
f 41/83/11 39/84/11 38/85/11
f 40/86/5 44/87/5 42/75/5
f 45/88/1 46/89/1 47/90/1
f 48/91/2 49/92/2 46/93/2
f 50/94/3 51/95/3 49/96/3
f 52/97/4 47/98/4 51/99/4
f 49/100/11 47/101/11 46/102/11
f 48/103/5 52/104/5 50/105/5
f 53/106/1 54/107/1 55/108/1
f 56/109/2 57/110/2 54/111/2
f 58/112/3 59/113/3 57/114/3
f 60/115/4 55/116/4 59/117/4
f 57/118/11 55/119/11 54/120/11
f 56/121/5 60/122/5 58/123/5
f 1/1/1 4/124/1 2/2/1
f 4/4/2 6/125/2 5/5/2
f 6/4/3 8/125/3 7/5/3
f 8/4/4 1/125/4 3/5/4
f 9/126/3 26/127/3 10/81/3
f 12/10/4 16/11/4 13/11/4
f 8/128/5 16/129/5 12/130/5
f 20/37/7 61/35/7 4/35/7
f 16/17/4 8/18/4 11/18/4
f 18/131/5 14/132/5 13/133/5
f 15/11/4 20/10/4 18/10/4
f 16/22/6 15/17/6 19/17/6
f 20/17/6 12/22/6 14/22/6
f 11/23/7 10/134/7 21/24/7
f 15/17/6 16/22/6 17/22/6
f 8/26/6 6/17/6 9/17/6
f 6/27/4 15/28/4 22/28/4
f 23/135/5 28/136/5 24/137/5
f 26/138/5 27/139/5 21/140/5
f 4/35/8 25/141/8 24/36/8
f 1/142/3 23/143/3 25/144/3
f 22/41/9 27/145/9 26/42/9
f 17/146/1 21/147/1 27/148/1
f 12/47/10 28/149/10 23/48/10
f 20/150/1 24/151/1 28/152/1
f 29/53/1 32/153/1 30/54/1
f 32/56/2 34/154/2 33/57/2
f 34/59/3 36/155/3 35/60/3
f 36/62/4 29/156/4 31/63/4
f 33/65/11 35/157/11 31/66/11
f 32/68/5 29/158/5 36/69/5
f 37/71/1 40/159/1 38/72/1
f 40/74/2 42/160/2 41/75/2
f 42/77/3 44/161/3 43/78/3
f 44/80/4 37/8/4 39/81/4
f 41/83/11 43/162/11 39/84/11
f 40/86/5 37/163/5 44/87/5
f 45/88/1 48/164/1 46/89/1
f 48/91/2 50/165/2 49/92/2
f 50/94/3 52/166/3 51/95/3
f 52/97/4 45/167/4 47/98/4
f 49/100/11 51/168/11 47/101/11
f 48/103/5 45/169/5 52/104/5
f 53/106/1 56/170/1 54/107/1
f 56/109/2 58/171/2 57/110/2
f 58/172/3 60/173/3 59/113/3
f 60/115/4 53/174/4 55/116/4
f 57/118/11 59/175/11 55/119/11
f 56/121/5 53/176/5 60/122/5
f 61/177/5 63/178/5 62/179/5
f 61/180/5 64/181/5 63/182/5
f 6/27/12 63/28/12 15/28/12
f 4/183/2 62/184/2 6/184/2
f 7/183/11 2/185/11 5/186/11
f 66/187/4 72/188/4 68/188/4
f 72/183/11 69/185/11 71/186/11
f 67/187/2 69/188/2 65/188/2
f 65/189/1 70/190/1 66/190/1
f 68/187/3 71/188/3 67/188/3
f 74/187/3 80/188/3 76/188/3
f 80/183/11 77/185/11 79/186/11
f 75/187/1 77/188/1 73/188/1
f 73/189/4 78/190/4 74/190/4
f 76/187/2 79/188/2 75/188/2
f 82/187/2 88/188/2 84/188/2
f 88/183/11 85/185/11 87/186/11
f 83/187/4 85/188/4 81/188/4
f 81/189/3 86/190/3 82/190/3
f 84/187/1 87/188/1 83/188/1
f 90/187/1 96/188/1 92/188/1
f 96/183/11 93/185/11 95/186/11
f 91/187/3 93/188/3 89/188/3
f 89/189/2 94/190/2 90/190/2
f 91/188/4 96/187/4 95/188/4
f 15/15/4 63/15/4 64/16/4
f 20/37/7 64/37/7 61/35/7
f 6/27/12 62/27/12 63/28/12
f 4/183/2 61/183/2 62/184/2
f 7/183/11 3/184/11 2/185/11
f 66/187/4 70/187/4 72/188/4
f 72/183/11 70/184/11 69/185/11
f 67/187/2 71/187/2 69/188/2
f 65/189/1 69/189/1 70/190/1
f 68/187/3 72/187/3 71/188/3
f 74/187/3 78/187/3 80/188/3
f 80/183/11 78/184/11 77/185/11
f 75/187/1 79/187/1 77/188/1
f 73/189/4 77/189/4 78/190/4
f 76/187/2 80/187/2 79/188/2
f 82/187/2 86/187/2 88/188/2
f 88/183/11 86/184/11 85/185/11
f 83/187/4 87/187/4 85/188/4
f 81/189/3 85/189/3 86/190/3
f 84/187/1 88/187/1 87/188/1
f 90/187/1 94/187/1 96/188/1
f 96/183/11 94/184/11 93/185/11
f 91/187/3 95/187/3 93/188/3
f 89/189/2 93/189/2 94/190/2
f 91/188/4 92/187/4 96/187/4
